<?xml version="1.0" encoding="utf-8"?>
<!-- Generator: Adobe Illustrator 19.0.0, SVG Export Plug-In . SVG Version: 6.00 Build 0)  -->
<svg version="1.1" id="Capa_1" xmlns="http://www.w3.org/2000/svg" xmlns:xlink="http://www.w3.org/1999/xlink" x="0px" y="0px"
	 width="220.067px" height="57.336px"  viewBox="-489 172.7 220.1 57.3" style="enable-background:new -489 172.7 220.1 57.3;" xml:space="preserve">
<style type="text/css">
	.st0{fill:#2D3277;}
	.st1{fill:#009EE3;}
	.st2{fill:#01AFEB;}
	.st3{fill:#2D2F79;}
</style>
<g>
	<path class="st0" d="M-273.8,181.4c-1.5-1.8-3.7-2.7-6.6-2.7c-3,0-5.2,0.9-6.6,2.7c-1.5,1.8-2.2,4-2.2,6.5s0.7,4.7,2.2,6.5
		s3.7,2.7,6.6,2.7c3,0,5.2-0.9,6.6-2.7c1.5-1.8,2.2-4,2.2-6.5S-272.4,183.2-273.8,181.4z M-277.4,191.9c-0.7,0.9-1.7,1.4-3,1.4
		s-2.3-0.5-3-1.4s-1.1-2.3-1.1-4s0.4-3.1,1.1-4s1.7-1.4,3-1.4s2.3,0.5,3,1.4s1.1,2.3,1.1,4C-276.4,189.6-276.7,190.9-277.4,191.9z"
		/>
	<path class="st0" d="M-311,179.9c-1.5-0.7-3.2-1.1-5.1-1.1c-2.9,0-5,0.8-6.2,2.3c-0.8,1-1.2,2.2-1.3,3.7h4.4
		c0.1-0.7,0.3-1.2,0.6-1.6c0.4-0.5,1.2-0.8,2.3-0.8c1,0,1.7,0.1,2.2,0.4c0.5,0.3,0.7,0.8,0.7,1.5c0,0.6-0.3,1-1,1.3
		c-0.4,0.2-1,0.3-1.8,0.4l-1.5,0.2c-1.8,0.2-3.1,0.6-4,1.1c-1.7,1-2.5,2.5-2.5,4.6c0,1.6,0.5,2.9,1.5,3.8c1,0.9,2.3,1.3,3.9,1.3
		c9.9,0.4,9.8-5.2,9.8-6.4v-6.4C-308.8,182.1-309.5,180.7-311,179.9z M-313.3,189.8c0,1.5-0.5,2.6-1.3,3.1c-0.8,0.6-1.7,0.9-2.7,0.9
		c-0.6,0-1.2-0.2-1.6-0.5s-0.7-0.9-0.7-1.7c0-0.9,0.4-1.5,1.1-1.9c0.4-0.2,1.1-0.5,2.1-0.6l1-0.2c0.5-0.1,0.9-0.2,1.2-0.3
		c0.3-0.1,0.6-0.3,0.9-0.4V189.8z"/>
	<path class="st0" d="M-333.5,182.6c1.1,0,2,0.3,2.5,1c0.4,0.5,0.6,1.1,0.7,1.7h4.9c-0.3-2.5-1.1-4.2-2.6-5.1
		c-1.5-1-3.3-1.5-5.6-1.5c-2.7,0-4.8,0.8-6.3,2.5c-1.5,1.6-2.3,3.9-2.3,6.9c0,2.6,0.7,4.8,2.1,6.4c1.4,1.6,3.5,2.5,6.5,2.5
		c2.9,0,5.1-1,6.6-3c0.9-1.2,1.5-2.5,1.6-3.9h-4.8c-0.1,0.9-0.4,1.6-0.9,2.2c-0.5,0.6-1.3,0.9-2.4,0.9c-1.6,0-2.6-0.7-3.2-2.2
		c-0.3-0.8-0.5-1.8-0.5-3c0-1.3,0.2-2.4,0.5-3.2C-336.2,183.4-335.1,182.6-333.5,182.6z"/>
	<path class="st0" d="M-343.5,178.8c-10,0-9.4,8.9-9.4,8.9v9h4.5v-8.5c0-1.4,0.2-2.4,0.5-3.1c0.6-1.2,1.8-1.8,3.7-1.8
		c0.1,0,0.3,0,0.5,0s0.5,0,0.8,0.1v-4.6c-0.2,0-0.3,0-0.4,0C-343.3,178.8-343.4,178.8-343.5,178.8z"/>
	<path class="st0" d="M-360.2,192c-0.2,0.3-0.4,0.5-0.6,0.7c-0.6,0.5-1.5,0.7-2.5,0.7s-1.7-0.1-2.4-0.6c-1.1-0.7-1.8-1.9-1.8-3.6
		h12.6c0-1.5,0-2.6-0.2-3.4c-0.2-1.4-0.7-2.5-1.4-3.6c-0.8-1.2-1.8-2-3-2.6c-1.2-0.5-2.6-0.8-4-0.8c-2.5,0-4.6,0.8-6.2,2.4
		c-1.6,1.6-2.4,3.9-2.4,6.9c0,3.2,0.9,5.5,2.6,6.9c1.8,1.4,3.8,2.1,6.1,2.1c2.8,0,4.9-0.8,6.5-2.5c0.8-0.9,1.4-1.8,1.6-2.6
		L-360.2,192L-360.2,192z M-366.3,183.5c0.6-0.7,1.5-1,2.7-1c1.1,0,2,0.3,2.7,0.9c0.7,0.6,1.1,1.5,1.2,2.7h-7.8
		C-367.3,185.1-366.9,184.2-366.3,183.5z"/>
	<path class="st0" d="M-373.9,196.7h-4.1v-10.5c0-1-0.3-3.2-3-3.2c-1.8,0-3.1,1.3-3.1,3.2v10.4h-4.1v-10.4c0-1-0.3-3.2-3-3.2
		c-1.9,0-3.1,1.3-3.1,3.2v10.4h-4.1v-10.3c0-4.3,2.9-7.6,7.3-7.6c2.2,0,4,0.9,5.2,2.4c1.2-1.5,3-2.4,5.2-2.4c4.5,0,7.2,3.1,7.2,7.6
		L-373.9,196.7L-373.9,196.7z"/>
	<path class="st0" d="M-290.6,173.4c0,0-4.6-0.5-4.6,3.2v4.9c-0.5-0.8-1.2-1.4-2-1.9s-1.7-0.7-2.8-0.7c-2.3,0-4.1,0.8-5.4,2.5
		c-1.4,1.7-2,4.1-2,7.1c0,2.6,0.7,4.6,2.1,6.3c1.4,1.6,4.1,2.3,6.5,2.3c8.4,0,8.3-7.2,8.3-7.2L-290.6,173.4z M-296,191.9
		c-0.7,1-1.6,1.4-2.9,1.4s-2.2-0.5-2.9-1.4c-0.6-1-0.9-2.3-0.9-3.9c0-1.5,0.3-2.7,0.9-3.7s1.6-1.5,2.9-1.5c0.9,0,1.6,0.3,2.3,0.8
		c1.1,0.9,1.6,2.5,1.6,4.6C-295,189.7-295.4,191-296,191.9z"/>
	<path class="st1" d="M-365.6,225.5c0,0.6-0.2,1.1-0.7,1.6c-0.4,0.4-1,0.7-1.6,0.7h-2.3V212c0-3.1,1-5,2.7-6.3
		c1.1-0.9,2.8-1.7,5.9-1.7c2.1,0,4.6,0.8,5.9,2.5c1.5,1.8,2.1,3.9,2.1,6.6c0,2.8-0.7,5-2,6.7s-3,2.5-5.1,2.5c-1.1,0-2.1-0.2-2.9-0.6
		c-0.9-0.4-1.6-1.1-2.1-2L-365.6,225.5L-365.6,225.5z M-358,213.2c0-1.7-0.3-3-1-3.9s-1.6-1.4-2.9-1.4c-1.2,0-2.1,0.5-2.8,1.4
		c-0.6,0.8-0.9,2.2-0.9,3.9s0.3,2.9,1,3.8c0.7,0.9,1.6,1.4,2.9,1.4c1.2,0,2.1-0.5,2.7-1.4C-358.3,216-358,214.8-358,213.2"/>
	<path class="st1" d="M-323.3,220.8v-1.1c-0.8,1.2-1.8,2-3.2,2.3c-1.3,0.3-2.7,0.2-4-0.3s-2.4-1.5-3.4-2.9c-0.9-1.4-1.4-3.3-1.4-5.6
		c0-2.7,0.6-4.9,1.9-6.6c1.2-1.7,3.2-2.5,6-2.5c2.7-0.1,4.3,0.5,5.8,1.7c1.7,1.3,2.7,3.2,2.7,6.3v9.3c0,3-2.1,8.4-8.5,8
		c-4-0.3-6.2-1.9-7.5-5.7h4.8c0.4,0.6,0.9,1.1,1.6,1.4c0.7,0.3,1.4,0.4,2.2,0.3c0.7-0.2,1.4-0.6,2-1.3
		C-323.8,223.2-323.4,222.2-323.3,220.8 M-330.8,213.2c0,3,0.9,4.7,2.6,5s3-0.1,3.9-1.2c0.4-0.5,0.7-1.2,0.8-2.3c0.2-1,0.2-2,0-3.1
		c-0.2-1-0.5-1.9-1.1-2.7s-1.4-1.2-2.5-1.2c-1.5,0-2.5,0.6-3,1.6C-330.5,210.5-330.8,211.8-330.8,213.2"/>
	<path class="st1" d="M-339.1,205.2c-1.5-0.7-3.2-1.1-5.1-1.1c-2.9,0-5,0.8-6.2,2.3c-0.8,1-1.2,2.2-1.3,3.7h4.4
		c0.1-0.7,0.3-1.2,0.6-1.6c0.4-0.5,1.2-0.8,2.3-0.8c1,0,1.7,0.1,2.2,0.4c0.5,0.3,0.7,0.8,0.7,1.5c0,0.6-0.3,1-1,1.3
		c-0.4,0.2-1,0.3-1.8,0.4l-1.5,0.2c-1.8,0.2-3.1,0.6-4,1.1c-1.7,1-2.5,2.5-2.5,4.6c0,1.6,0.5,2.9,1.5,3.8c1,0.9,2.3,1.3,3.9,1.3
		c9.9,0.4,9.8-5.2,9.8-6.4v-6.5C-336.9,207.3-337.7,205.9-339.1,205.2 M-341.4,215c0,1.5-0.5,2.6-1.3,3.1c-0.8,0.6-1.7,0.9-2.7,0.9
		c-0.6,0-1.2-0.2-1.6-0.5s-0.7-0.9-0.7-1.7c0-0.9,0.4-1.5,1.1-1.9c0.4-0.2,1.1-0.5,2.1-0.6l1-0.2c0.5-0.1,0.9-0.2,1.2-0.3
		c0.3-0.1,0.6-0.3,0.9-0.4V215z"/>
	<path class="st1" d="M-301.7,206.6c-1.5-1.8-3.7-2.7-6.6-2.7c-3,0-5.2,0.9-6.6,2.7c-1.5,1.8-2.2,4-2.2,6.5s0.7,4.7,2.2,6.5
		s3.7,2.7,6.6,2.7c3,0,5.2-0.9,6.6-2.7c1.5-1.8,2.2-4,2.2-6.5S-300.3,208.4-301.7,206.6 M-305.3,217.1c-0.7,0.9-1.7,1.4-3,1.4
		s-2.3-0.5-3-1.4s-1.1-2.3-1.1-4s0.4-3.1,1.1-4s1.7-1.4,3-1.4s2.3,0.5,3,1.4s1.1,2.3,1.1,4C-304.3,214.8-304.6,216.1-305.3,217.1"/>
	<g>
		<path class="st2" d="M-462.2,203.1c-7.5-2.9-15.1-4.9-23.4-3.9c0.1-0.9,0.2-1.6,0.3-2.4c1.6-6,5.7-10.2,10.7-13.4
			c0.5-0.3,1.4-0.3,1.9-0.1c1.3,0.3,2.5,0.9,3.7,1.2c1.1,0.3,2.1,0.6,3.2,0.6c0.8,0,1.2,0.1,1.4,0.9c1.1,2.7,1.8,5.5,1.7,8.5
			c-0.1,2.5,0.1,4.9,0.2,7.4C-462.2,202.2-462.2,202.6-462.2,203.1z"/>
		<path class="st2" d="M-463.4,178.3c9.1-2.2,18.2-2.2,27.3-0.1c-0.1,0.3-0.2,0.5-0.3,0.7c-2.9,2.8-4.6,6.3-6.1,9.9
			c-2.4,5.6-4.7,11-7.1,16.6c0,0.1-0.1,0.1-0.2,0.1c-2.4-5.4-4.6-10.9-7.1-16.2c-1.6-3.7-3.4-7.5-6.4-10.5
			C-463.3,178.7-463.3,178.5-463.4,178.3z"/>
		<path class="st2" d="M-413.7,199.1c-8.1-0.8-15.7,1.2-23.2,4c0.3-4.6,0.5-8.8,0.8-13.2c0.1-1.2,0.7-2.4,1.1-3.5
			c0.1-0.3,0.5-0.5,0.9-0.6c1.4-0.3,2.7-0.5,4.1-0.8c1.4-0.3,2.7-0.8,4.2-1.1c0.4-0.1,1,0,1.4,0.2c4,2.5,7.2,5.6,9.3,9.8
			C-414.2,195.5-413.6,197.2-413.7,199.1z"/>
		<path class="st2" d="M-449.7,209.2c1,1.7,2.7,2.1,4.4,2.3c8.3,0.8,16.5,1,24.7-0.8c0.3-0.1,0.7-0.2,1-0.1c0.4,0.1,0.8,0.3,1,0.5
			c0.1,0.2-0.1,0.8-0.4,1c-3.8,3.6-8.3,5.9-13.2,7.6c-7,2.4-14.2,3-21.5,2.6c-7-0.5-13.8-2.1-20-5.7c-2.2-1.3-4.2-2.9-6.3-4.5
			c-0.3-0.3-0.5-0.8-0.7-1.2c0.5-0.1,1-0.3,1.6-0.2c2.1,0.3,4.1,0.7,6.2,1c4.5,0.6,9.1,0.6,13.6,0.2c1.4-0.1,2.7-0.2,4.1-0.3
			C-452.5,211.4-451.8,211.1-449.7,209.2z"/>
		<path class="st3" d="M-475.5,183.2c-0.9-1.9-0.7-2.6,1-3.3c-0.6-1.3,0-2.2,1-3s2.1-1.6,3.2-2.2c1.3-0.8,2.1-0.7,3.3,0.4
			c0.8,0.8,1.6,1.6,2.4,2.4c0.3,0.3,0.9,0.5,1.3,0.4c5.7-1.5,11.6-1.9,17.5-1.6c3.1,0.2,6.1,0.8,9.2,1.4c0.9,0.2,1.5,0.1,2-0.6
			c0.7-0.8,1.5-1.5,2.2-2.2c0.8-0.8,1.7-0.9,2.7-0.4c1.3,0.8,2.6,1.7,3.9,2.7c0.9,0.7,1.3,1.6,0.7,2.7c1.7,0.8,1.9,1.3,1.2,3
			c1,0.7,2,1.5,3,2.3c3.7,3,6.7,6.6,7.7,11.4c1.4,7-0.1,13.4-4.9,18.8c-4.6,5.2-10.6,8.1-17.3,9.9c-6.1,1.6-12.3,1.9-18.5,1.5
			c-7.8-0.5-15.2-2.4-21.7-6.9c-4.9-3.3-8.5-7.6-10-13.5c-2-8.2,0.3-15.1,6.7-20.6c0.5-0.5,1.1-0.9,1.7-1.3
			C-476.7,184-476.1,183.6-475.5,183.2z M-430.4,180.8c1.8,0.8,2.6,0.5,3.9-1.1c0.6-0.7,0.5-1.3-0.2-1.8c-1.1-0.8-2.2-1.6-3.4-2.2
			c-0.4-0.2-1.1-0.1-1.5,0.2c-0.9,0.7-1.6,1.5-2.4,2.3c-3.2,3-5.8,6.4-7.5,10.5c-1.8,4.4-3.8,8.8-5.7,13.2c-0.6,1.5-1.2,3.1-1.6,4.7
			c-0.6,2.6,0.7,4.2,3.4,4.4c1.2,0.1,2.5,0.2,3.7,0.3c5.9,0.6,11.8,0.4,17.7-0.7c1.8-0.3,3.8-1.4,5.3,0.7c3-3.1,4.8-7.6,4.4-11.2
			c-8.6-1-16.6,1.5-24.6,4.8c1.4-3.7,1.2-7.4,1.1-11.1c-0.1-2.9,0.8-5.7,2-8.3c0.3-0.7,0.9-1,1.7-1c1.1,0,2.1-0.2,3.1-0.4
			c1.7-0.4,3.3-0.9,4.9-1.4c0.5-0.2,1.3-0.1,1.3-1.4c-0.2-0.6-2,0.5-3,0.8c-0.4,0.1-1,0.3-1.3,0.2c-1.2-0.5-2-0.3-2.8,0.7
			c-0.3,0.4-0.9,0.6-1.4,0.8c-0.1-0.1-0.1-0.2-0.2-0.4c0.6-0.6,1.2-1.1,1.7-1.7c0.8-0.8,1.7-1.6,1-2.9c0.3,0.2,0.6,0.5,1,0.8
			c0.3-0.3,0.5-0.7,0.7-1c0.1,0.3,0.9,0.7,0.9,1s-0.3,0.6-0.5,0.7c-0.1,0.1-0.5-0.3-0.5-0.3C-430.1,179.6-430.2,180.2-430.4,180.8z
			 M-480.9,210.5c1.2-0.2,2.2-0.5,3.1-0.4c1.9,0.2,3.7,0.7,5.6,0.9c3.1,0.3,6.3,0.5,9.4,0.5c2.9,0,5.7-0.4,8.6-0.6
			c2.4-0.2,3.9-1.6,3.5-3.7c-0.1-0.8-0.3-1.6-0.6-2.4c-2-4.7-4.1-9.4-5.9-14.2c-2.2-5.8-6-10.5-10.5-14.6c-0.5-0.4-1-0.9-1.7-0.5
			c-1.3,0.8-2.5,1.7-3.7,2.6c-0.2,0.2-0.4,0.7-0.3,1c0.5,1.7,2.6,2.5,4.2,1.7c-0.1-0.6-0.3-1.1-1.1-0.8c-0.1,0-0.4-0.4-0.4-0.5
			c0-0.3,0.2-0.6,0.3-1c0.3,0.4,0.5,0.7,0.7,1c0.4-0.3,0.8-0.6,1.2-0.9c-0.9,1.2-0.1,1.9,0.6,2.7c0.7,0.7,1.4,1.4,2,2.1
			c-0.1,0.1-0.2,0.2-0.3,0.4c-0.6-0.4-1.1-0.9-1.7-1.3c-0.4-0.3-1.1-0.8-1.4-0.7c-1.2,0.6-2.3,0.2-3.4-0.3c-0.4-0.2-0.9-0.2-1.4-0.3
			c-0.2,0-0.5,0-0.6,0.3s0.2,0.5,0.4,0.6c0.3,0.2,0.6,0.2,1,0.3c1.6,0.5,3.2,1,4.8,1.4c1,0.2,2,0.6,2.9,0.5c1-0.1,1.6,0.2,2,1
			c1.3,3.2,2.4,6.4,1.9,9.9c-0.1,1-0.1,2.1,0,3.1c0.2,2.1,0.6,4.2,0.9,6.3c-0.1,0-0.3-0.1-0.5-0.2c-7-3.1-14.2-5.2-22-4.5
			c-0.9,0.1-1.3,0.3-1.3,1.3C-484.6,205-483,208-480.9,210.5z M-449.7,210c-2,1.8-2.7,2.1-5.4,2.3c-1.3,0.1-2.6,0.2-3.9,0.3
			c-4.3,0.3-8.7,0.4-13-0.2c-2-0.3-3.9-0.7-5.9-1c-0.5-0.1-1,0.2-1.5,0.2c0.2,0.4,0.4,0.9,0.7,1.1c2,1.5,3.9,3.1,6,4.3
			c5.9,3.4,12.4,5,19.1,5.4c7,0.5,13.8-0.2,20.5-2.5c4.7-1.6,9-3.8,12.6-7.2c0.2-0.2,0.5-0.8,0.4-1c-0.1-0.3-0.6-0.5-1-0.5
			c-0.3-0.1-0.7,0-1,0.1c-7.8,1.8-15.6,1.6-23.5,0.8C-447.1,212-448.7,211.6-449.7,210z M-462.5,179.2c0.1,0.3,0.1,0.4,0.2,0.5
			c2.8,2.8,4.5,6.3,6,9.8c2.2,5.1,4.4,10.2,6.6,15.2c0,0,0.1-0.1,0.2-0.1c2.2-5.2,4.4-10.3,6.6-15.5c1.5-3.4,3.1-6.7,5.7-9.3
			c0.2-0.2,0.2-0.4,0.3-0.7C-445.6,177-454,177-462.5,179.2z M-414.5,198.6c0-1.9-0.6-3.5-1.3-5.1c-2-4.1-5.1-7.1-8.9-9.4
			c-0.4-0.2-0.9-0.3-1.3-0.2c-1.3,0.3-2.7,0.8-4,1.1s-2.6,0.5-3.9,0.8c-0.3,0.1-0.8,0.3-0.9,0.6c-0.5,1.1-1,2.2-1.1,3.4
			c-0.4,4.2-0.6,8.3-0.8,12.7C-429.5,199.8-422.3,197.8-414.5,198.6z M-462.9,202.4c0-0.5,0-0.8,0-1.1c-0.1-2.3-0.3-4.6-0.2-6.9
			c0.1-2.8-0.6-5.3-1.6-7.9c-0.3-0.7-0.6-0.8-1.3-0.8c-1,0-2-0.3-3-0.6c-1.1-0.3-2.2-0.8-3.4-1.1c-0.6-0.1-1.4-0.2-1.8,0.1
			c-4.8,3-8.5,6.8-10,12.5c-0.2,0.7-0.2,1.4-0.3,2.2C-477,197.9-469.9,199.8-462.9,202.4z"/>
	</g>
</g>
</svg>
